<svg width="1447" height="814" viewBox="0 0 1447 814" fill="none" xmlns="http://www.w3.org/2000/svg">
<path opacity="0.3" d="M790.5 346L770 365.5L834 385.5C781.831 410.368 753.023 424.651 704 452L860 455L861.562 453.76C886.927 433.633 901.622 421.972 925 401L1116 404.5L1131 392L1011 379.5L1061 365.5L1087.5 347.5L969.5 362.5L972 356.5L923 351.5C911.482 355.713 898.5 362 887.5 362C876.5 362 790.5 346 790.5 346Z" fill="#979797" fill-opacity="0.43"/>
<path opacity="0.3" d="M101 357L105 355L83.5 353L40 377.5L70 390C82.7538 375.699 90.7121 368.265 109 358L101 357Z" fill="#979797" fill-opacity="0.43"/>
<path opacity="0.3" d="M138.5 434.5L129.5 431C144.863 417.368 152.506 408.921 161.5 390C203.359 400.37 224.751 409.262 264 423.5C239.826 436.241 226.64 444.582 204.5 464L189.5 458C177.755 468.17 171.051 473.834 153.5 482C120.038 482.094 100.509 482.974 75 474.5C94.2913 453.933 111.038 447.729 138.5 434.5Z" fill="#979797" fill-opacity="0.43"/>
<path opacity="0.3" d="M241.5 484L204.5 464C219.699 451.141 232.223 440.142 259.5 426L296.5 440C266.402 454.035 254.481 463.482 241.5 484Z" fill="#979797" fill-opacity="0.43"/>
<path opacity="0.3" d="M205.209 554.443C209.245 546.794 213.117 545.678 228.616 538.052C309.675 513.454 349.517 492.452 351.3 455L453 488.33C385.307 517.589 358.125 541.389 296.5 569.5C261.57 569.083 201.172 562.093 205.209 554.443Z" fill="#979797" fill-opacity="0.43"/>
<path d="M520.715 603.5L486.215 587L559.215 537L800.215 526L774.715 548L1446.71 576.5V602L906.715 611.5L862.215 644.5C819.684 642.844 793.893 642.37 788.715 632L800.215 621.5L781.215 614.5L662.715 617.5C446.241 758.466 356.815 811.284 313.715 810C271.215 822.5 239.466 802.666 289.715 762C339.964 721.334 520.715 603.5 520.715 603.5Z" fill="#131313"/>
<path d="M369.284 635.409C369.156 634.813 369.557 634.213 370.163 634.146C370.617 634.096 371.048 634.367 371.188 634.803C371.981 637.274 372.153 638.905 371.923 641.496C371.883 641.941 371.531 642.292 371.087 642.341C370.482 642.408 369.957 641.896 369.951 641.286C369.935 639.628 369.677 637.241 369.284 635.409Z" fill="#715857"/>
<path d="M362.284 638.409C362.156 637.813 362.557 637.213 363.163 637.146C363.617 637.096 364.048 637.367 364.188 637.803C364.981 640.274 365.153 641.905 364.923 644.496C364.883 644.941 364.531 645.292 364.087 645.341C363.482 645.408 362.957 644.896 362.951 644.286C362.935 642.628 362.677 640.241 362.284 638.409Z" fill="#715857"/>
<path d="M355.284 642.407C355.156 641.811 355.557 641.211 356.163 641.144C356.617 641.094 357.048 641.366 357.188 641.801C357.981 644.272 358.153 645.903 357.923 648.494C357.883 648.939 357.531 649.29 357.087 649.339C356.482 649.407 355.957 648.894 355.951 648.285C355.935 646.626 355.677 644.239 355.284 642.407Z" fill="#715857"/>
<path d="M348.284 646.409C348.156 645.813 348.557 645.213 349.163 645.146C349.617 645.096 350.048 645.367 350.188 645.803C350.981 648.274 351.153 649.905 350.923 652.496C350.883 652.941 350.531 653.292 350.087 653.341C349.482 653.408 348.957 652.896 348.951 652.286C348.935 650.628 348.677 648.241 348.284 646.409Z" fill="#715857"/>
<path d="M340.284 650.409C340.156 649.813 340.557 649.213 341.163 649.146C341.617 649.096 342.048 649.367 342.188 649.803C342.981 652.274 343.153 653.905 342.923 656.496C342.883 656.941 342.531 657.292 342.087 657.341C341.482 657.408 340.957 656.896 340.951 656.286C340.935 654.628 340.677 652.241 340.284 650.409Z" fill="#715857"/>
<path d="M330.657 655.407C330.529 654.811 330.93 654.211 331.536 654.144C331.99 654.094 332.421 654.366 332.561 654.801C333.354 657.272 333.526 658.903 333.296 661.494C333.256 661.939 332.904 662.29 332.46 662.339C331.855 662.407 331.331 661.894 331.324 661.285C331.308 659.626 331.05 657.239 330.657 655.407Z" fill="#715857"/>
<path d="M97.915 373L113.415 344L140.415 350L97.915 373Z" fill="#CDD3D8"/>
<path d="M58.415 396C69.415 376 83.045 366.813 108.915 353L98.415 372L140.415 350C149.875 356.17 157.028 359.45 172.915 365C174.138 373.592 174.415 378.5 172.915 387C171.415 395.5 140.915 433 99.915 446C155.915 413.5 104.415 353 58.415 396Z" fill="#C5AFFF"/>
<path d="M98.415 372L111.915 347L126.915 350.103L98.415 372Z" fill="white"/>
<line x1="90.2132" y1="395.326" x2="73.2132" y2="386.326" stroke="#30222A" stroke-width="3"/>
<line x1="94.2132" y1="390.326" x2="77.2132" y2="381.326" stroke="#30222A" stroke-width="3"/>
<line x1="92.5402" y1="402.452" x2="61.5402" y2="394.452" stroke="#30222A" stroke-width="3"/>
<line x1="94.8341" y1="409.498" x2="57.8341" y2="407.498" stroke="#30222A" stroke-width="3"/>
<line x1="97.2241" y1="414.468" x2="59.2241" y2="422.468" stroke="#30222A" stroke-width="3"/>
<line x1="103.51" y1="418.377" x2="66.5104" y2="434.377" stroke="#30222A" stroke-width="3"/>
<line x1="109.997" y1="419.039" x2="85.9971" y2="444.039" stroke="#30222A" stroke-width="3"/>
<line x1="115.257" y1="421.671" x2="105.257" y2="441.671" stroke="#30222A" stroke-width="3"/>
<path d="M123.503 412.609C123.207 430.426 108.258 444.712 90.0073 444.409C71.7566 444.105 57.2912 429.33 57.5875 411.513C57.8838 393.697 72.8325 379.411 91.0832 379.714C109.334 380.018 123.799 394.793 123.503 412.609Z" stroke="#D9D9D9" stroke-width="6"/>
<path d="M90.415 408C85.0481 396.884 86.2038 383.881 89.3777 383.854C92.9128 380.502 112.347 386.736 116.413 398.001L90.415 408Z" fill="#30222A"/>
<path d="M114.913 395.002C121.414 401.501 121.908 419.001 117.414 423.001C114.993 425.156 94.4811 419.266 90.415 408.001L114.913 395.002Z" fill="#30222A"/>
<path d="M312.5 447L171.5 390.5L172 375L312.5 447Z" fill="#C0CCD4"/>
<path d="M280.915 462L296.415 433L323.415 439L280.915 462Z" fill="#CDD3D8"/>
<path d="M241.415 485C252.415 465 266.045 455.813 291.915 442L281.415 461L323.415 439C332.875 445.17 340.028 448.45 355.915 454C357.138 462.592 357.415 467.5 355.915 476C354.415 484.5 323.915 522 282.915 535C338.915 502.5 287.415 442 241.415 485Z" fill="#C5AFFF"/>
<path d="M281.415 461L294.915 436L309.915 439.103L281.415 461Z" fill="white"/>
<line x1="273.213" y1="484.326" x2="256.213" y2="475.326" stroke="#30222A" stroke-width="3"/>
<line x1="277.213" y1="479.326" x2="260.213" y2="470.326" stroke="#30222A" stroke-width="3"/>
<line x1="275.54" y1="491.452" x2="244.54" y2="483.452" stroke="#30222A" stroke-width="3"/>
<line x1="277.834" y1="498.498" x2="240.834" y2="496.498" stroke="#30222A" stroke-width="3"/>
<line x1="280.224" y1="503.468" x2="242.224" y2="511.468" stroke="#30222A" stroke-width="3"/>
<line x1="286.51" y1="507.377" x2="249.51" y2="523.377" stroke="#30222A" stroke-width="3"/>
<line x1="292.997" y1="508.039" x2="268.997" y2="533.039" stroke="#30222A" stroke-width="3"/>
<line x1="298.257" y1="510.671" x2="288.257" y2="530.671" stroke="#30222A" stroke-width="3"/>
<path d="M306.503 501.609C306.207 519.426 291.258 533.712 273.007 533.409C254.757 533.105 240.291 518.33 240.588 500.513C240.884 482.697 255.833 468.411 274.083 468.714C292.334 469.018 306.799 483.793 306.503 501.609Z" stroke="#D9D9D9" stroke-width="6"/>
<path d="M273.415 497C268.048 485.884 269.204 472.881 272.378 472.854C275.913 469.502 295.347 475.736 299.413 487.001L273.415 497Z" fill="#30222A"/>
<path d="M297.913 484.002C304.414 490.501 304.908 508.001 300.414 512.001C297.993 514.156 277.481 508.266 273.415 497.001L297.913 484.002Z" fill="#30222A"/>
<path d="M97.915 373L113.415 344L140.415 350L97.915 373Z" fill="#CDD3D8"/>
<path d="M58.415 396C69.415 376 83.045 366.813 108.915 353L98.415 372L140.415 350C149.875 356.17 157.028 359.45 172.915 365C174.138 373.592 174.415 378.5 172.915 387C171.415 395.5 140.915 433 99.915 446C155.915 413.5 104.415 353 58.415 396Z" fill="#C5AFFF"/>
<path d="M98.415 372L111.915 347L126.915 350.103L98.415 372Z" fill="white"/>
<line x1="90.2132" y1="395.326" x2="73.2132" y2="386.326" stroke="#30222A" stroke-width="3"/>
<line x1="94.2132" y1="390.326" x2="77.2132" y2="381.326" stroke="#30222A" stroke-width="3"/>
<line x1="92.5402" y1="402.452" x2="61.5402" y2="394.452" stroke="#30222A" stroke-width="3"/>
<line x1="94.8341" y1="409.498" x2="57.8341" y2="407.498" stroke="#30222A" stroke-width="3"/>
<line x1="97.2241" y1="414.468" x2="59.2241" y2="422.468" stroke="#30222A" stroke-width="3"/>
<line x1="103.51" y1="418.377" x2="66.5104" y2="434.377" stroke="#30222A" stroke-width="3"/>
<line x1="109.997" y1="419.039" x2="85.9971" y2="444.039" stroke="#30222A" stroke-width="3"/>
<line x1="115.257" y1="421.671" x2="105.257" y2="441.671" stroke="#30222A" stroke-width="3"/>
<path d="M123.503 412.609C123.207 430.426 108.258 444.712 90.0073 444.409C71.7566 444.105 57.2912 429.33 57.5875 411.513C57.8838 393.697 72.8325 379.411 91.0832 379.714C109.334 380.018 123.799 394.793 123.503 412.609Z" stroke="#D9D9D9" stroke-width="6"/>
<path d="M90.415 408C85.0481 396.884 86.2038 383.881 89.3777 383.854C92.9128 380.502 112.347 386.736 116.413 398.001L90.415 408Z" fill="#30222A"/>
<path d="M114.913 395.002C121.414 401.501 121.908 419.001 117.414 423.001C114.993 425.156 94.4811 419.266 90.415 408.001L114.913 395.002Z" fill="#30222A"/>
<path d="M268 719.5C210.5 730 191.5 692 210 670.5C228.817 643.972 240.235 638.352 266 615.5L429.5 503.5L162.5 375.5L0.5 285.5L38.5 225L44 257.5C150.986 297.006 207.173 316.526 546 425.5C638.524 362.743 689.481 327.838 808.5 257L682.5 204.5L706.5 188L840.5 218L902.5 21.5L931.5 0L902.5 202C928 196 948 214 936 234L1100.5 241.5L1079.5 261L910 270C883.416 306.013 864.389 326.557 827 363.5L707 451.5C840.757 458.659 1024.25 457.104 1397.5 451.5L1409.5 422L1412 458.5L1381 492.5L563 542.5L303.5 706L293 711L268 719.5Z" fill="white"/>
<path opacity="0.5" d="M780.665 335.5C562.146 478.114 443.669 557.774 250.665 698.5L226.5 717.5C230.5 720 253.697 727.5 293.165 711.5L297 709.5L550.165 550.5C648.222 491.763 701.504 451.964 803.5 380.5C834 362.5 879 312 910.5 270C902.397 264.829 886.771 260.61 874 260C841.393 289.92 821.842 308.248 780.665 335.5Z" fill="url(#paint0_linear_239_4)"/>
<path opacity="0.5" d="M936 234C938.5 227 936 197 902 206.5C876 218.5 824 269 824 269C866.668 253.984 892.989 260.66 910.5 269.74L982.5 236L936 234Z" fill="#B0C1C9"/>
<path d="M931.5 0L902.5 21.5L824 269L902 206.5L931.5 0Z" fill="#C5AFFF"/>
<path d="M1066.59 541.297L1064.75 508.466L1090.94 499.554L1066.59 541.297Z" fill="#CDD3D8"/>
<path d="M1044.81 581.481C1043.8 558.677 1050.67 543.743 1065.59 518.494L1066.5 540.183L1090.94 499.555C1102.23 499.906 1110.04 498.99 1126.5 495.471C1132.01 502.175 1134.8 506.223 1137.94 514.264C1141.07 522.305 1134.52 570.195 1106.25 602.616C1137.19 545.739 1061.74 520.834 1044.81 581.481Z" fill="#C5AFFF"/>
<path d="M1066.5 540.183L1065.03 511.809L1079.46 506.661L1066.5 540.183Z" fill="white"/>
<line x1="1071.62" y1="564.373" x2="1052.42" y2="565.523" stroke="#30222A" stroke-width="3"/>
<line x1="1072.44" y1="558.022" x2="1053.23" y2="559.173" stroke="#30222A" stroke-width="3"/>
<line x1="1077.31" y1="569.251" x2="1046.67" y2="578.534" stroke="#30222A" stroke-width="3"/>
<line x1="1082.93" y1="574.077" x2="1050.29" y2="591.605" stroke="#30222A" stroke-width="3"/>
<line x1="1087.56" y1="577.08" x2="1059.26" y2="603.67" stroke="#30222A" stroke-width="3"/>
<line x1="1094.96" y1="577.15" x2="1071.67" y2="610.055" stroke="#30222A" stroke-width="3"/>
<line x1="1100.85" y1="574.344" x2="1093.34" y2="608.177" stroke="#30222A" stroke-width="3"/>
<line x1="1106.71" y1="573.857" x2="1108.56" y2="596.141" stroke="#30222A" stroke-width="3"/>
<path d="M1109.04 561.83C1118.05 577.203 1112.71 597.179 1096.96 606.408C1081.21 615.637 1061.17 610.536 1052.16 595.163C1043.15 579.789 1048.5 559.814 1064.25 550.585C1079.99 541.355 1100.03 546.456 1109.04 561.83Z" stroke="#D9D9D9" stroke-width="6"/>
<path d="M1078.38 575.095C1068.02 568.389 1062.24 556.681 1064.94 555.008C1066.22 550.306 1086.06 545.528 1095.39 553.037L1078.38 575.095Z" fill="#30222A"/>
<path d="M1092.55 551.255C1101.48 553.426 1111 568.118 1109.24 573.872C1108.29 576.972 1087.71 582.605 1078.38 575.095L1092.55 551.255Z" fill="#30222A"/>
<path d="M787.59 557.297L785.754 524.466L811.937 515.554L787.59 557.297Z" fill="#CDD3D8"/>
<path d="M765.806 597.481C764.805 574.677 771.671 559.743 786.589 534.494L787.498 556.183L811.937 515.555C823.226 515.906 831.041 514.99 847.498 511.471C853.009 518.175 855.798 522.223 858.936 530.264C862.074 538.305 855.516 586.195 827.252 618.616C858.191 561.739 782.745 536.834 765.806 597.481Z" fill="#C5AFFF"/>
<path d="M787.498 556.183L786.032 527.809L800.459 522.661L787.498 556.183Z" fill="white"/>
<line x1="792.619" y1="580.373" x2="773.418" y2="581.523" stroke="#30222A" stroke-width="3"/>
<line x1="793.436" y1="574.022" x2="774.235" y2="575.173" stroke="#30222A" stroke-width="3"/>
<line x1="798.311" y1="585.251" x2="767.671" y2="594.534" stroke="#30222A" stroke-width="3"/>
<line x1="803.934" y1="590.077" x2="771.288" y2="607.605" stroke="#30222A" stroke-width="3"/>
<line x1="808.559" y1="593.08" x2="780.258" y2="619.67" stroke="#30222A" stroke-width="3"/>
<line x1="815.962" y1="593.15" x2="792.674" y2="626.055" stroke="#30222A" stroke-width="3"/>
<line x1="821.847" y1="590.344" x2="814.343" y2="624.177" stroke="#30222A" stroke-width="3"/>
<line x1="827.708" y1="589.857" x2="829.564" y2="612.141" stroke="#30222A" stroke-width="3"/>
<path d="M830.041 577.83C839.051 593.203 833.709 613.179 817.961 622.408C802.213 631.637 782.175 626.536 773.165 611.163C764.155 595.789 769.497 575.814 785.245 566.585C800.993 557.355 821.032 562.456 830.041 577.83Z" stroke="#D9D9D9" stroke-width="6"/>
<path d="M799.38 591.095C789.016 584.389 783.243 572.681 785.94 571.008C787.217 566.306 807.059 561.528 816.39 569.037L799.38 591.095Z" fill="#30222A"/>
<path d="M813.549 567.255C822.482 569.426 832.002 584.118 830.243 589.872C829.295 592.972 808.711 598.605 799.381 591.095L813.549 567.255Z" fill="#30222A"/>
<path d="M1096.5 510L859 542L855.5 524L1096.5 510Z" fill="#C0CCD4"/>
<path d="M225 678.61C219.246 675.68 216.933 673.427 215.5 667.61L212 672.61C213.661 677.619 215.366 679.871 219.5 683.11L225 678.61Z" fill="#715857"/>
<path d="M251.5 683.61C237.5 683.61 237.697 684.732 229.5 679.61L225 686.11C232.67 689.978 239.654 691.455 249 690.075L251.5 683.61Z" fill="#715857"/>
<path d="M295 678.11C281.552 682.002 267.905 685.429 258.608 682.788L256.092 690.283C264.535 691.865 282.406 690.533 291 686.61L295 678.11Z" fill="#715857"/>
<path d="M38.5 225L0.5 285.5L44 257.5L38.5 225Z" fill="#A9ADC6"/>
<path d="M1412 458.5L1409.5 422L1381 492.5L1412 458.5Z" fill="#212042"/>
<path d="M430.741 587.156C430.539 586.581 430.861 585.936 431.453 585.793C431.898 585.685 432.36 585.9 432.554 586.314C433.654 588.665 434.03 590.261 434.13 592.86C434.147 593.307 433.842 593.7 433.408 593.805C432.816 593.948 432.231 593.506 432.148 592.902C431.921 591.26 431.364 588.924 430.741 587.156Z" fill="#715857"/>
<path d="M516.926 530.791C516.723 530.216 517.045 529.571 517.637 529.428C518.082 529.32 518.544 529.535 518.738 529.949C519.838 532.3 520.214 533.896 520.314 536.495C520.331 536.941 520.026 537.335 519.592 537.44C519 537.583 518.415 537.141 518.332 536.537C518.105 534.894 517.548 532.558 516.926 530.791Z" fill="#715857"/>
<path d="M424.178 591.019C423.975 590.444 424.297 589.798 424.889 589.655C425.334 589.548 425.796 589.762 425.99 590.177C427.09 592.528 427.466 594.124 427.566 596.723C427.583 597.169 427.278 597.562 426.844 597.667C426.252 597.81 425.667 597.368 425.584 596.765C425.357 595.122 424.8 592.786 424.178 591.019Z" fill="#715857"/>
<path d="M510.362 534.653C510.159 534.078 510.481 533.433 511.073 533.29C511.518 533.182 511.98 533.397 512.174 533.811C513.274 536.162 513.65 537.758 513.75 540.357C513.767 540.803 513.462 541.197 513.028 541.302C512.436 541.445 511.851 541.003 511.768 540.399C511.541 538.756 510.984 536.421 510.362 534.653Z" fill="#715857"/>
<path d="M417.74 595.87C417.538 595.295 417.859 594.65 418.452 594.507C418.896 594.399 419.358 594.614 419.552 595.028C420.652 597.38 421.028 598.975 421.128 601.575C421.146 602.021 420.841 602.414 420.407 602.519C419.814 602.662 419.23 602.22 419.146 601.616C418.92 599.974 418.362 597.638 417.74 595.87Z" fill="#715857"/>
<path d="M503.924 539.505C503.722 538.93 504.043 538.285 504.636 538.142C505.08 538.034 505.542 538.249 505.736 538.663C506.836 541.014 507.213 542.61 507.312 545.209C507.33 545.656 507.025 546.049 506.591 546.154C505.999 546.297 505.414 545.855 505.33 545.251C505.104 543.608 504.546 541.273 503.924 539.505Z" fill="#715857"/>
<path d="M411.303 600.727C411.101 600.152 411.422 599.506 412.015 599.363C412.459 599.256 412.921 599.47 413.115 599.885C414.215 602.236 414.591 603.832 414.691 606.431C414.709 606.877 414.404 607.27 413.97 607.375C413.377 607.518 412.793 607.076 412.709 606.473C412.483 604.83 411.925 602.494 411.303 600.727Z" fill="#715857"/>
<path d="M497.487 544.361C497.285 543.786 497.606 543.141 498.199 542.998C498.643 542.89 499.105 543.105 499.299 543.519C500.399 545.871 500.775 547.466 500.875 550.065C500.893 550.512 500.588 550.905 500.154 551.01C499.562 551.153 498.977 550.711 498.893 550.107C498.667 548.465 498.109 546.129 497.487 544.361Z" fill="#715857"/>
<path d="M403.874 605.707C403.671 605.132 403.993 604.487 404.586 604.344C405.03 604.236 405.492 604.451 405.686 604.865C406.786 607.216 407.162 608.812 407.262 611.411C407.279 611.858 406.975 612.251 406.541 612.356C405.948 612.499 405.363 612.057 405.28 611.453C405.054 609.811 404.496 607.475 403.874 605.707Z" fill="#715857"/>
<path d="M490.058 549.342C489.855 548.767 490.177 548.122 490.77 547.978C491.214 547.871 491.676 548.086 491.87 548.5C492.97 550.851 493.346 552.447 493.446 555.046C493.463 555.492 493.159 555.886 492.725 555.991C492.132 556.134 491.547 555.692 491.464 555.088C491.238 553.445 490.68 551.109 490.058 549.342Z" fill="#715857"/>
<path d="M396.688 609.647C396.485 609.072 396.807 608.427 397.4 608.283C397.844 608.176 398.306 608.391 398.5 608.805C399.6 611.156 399.976 612.752 400.076 615.351C400.093 615.797 399.789 616.191 399.355 616.295C398.762 616.439 398.177 615.997 398.094 615.393C397.868 613.75 397.31 611.414 396.688 609.647Z" fill="#715857"/>
<path d="M482.872 553.281C482.669 552.706 482.991 552.061 483.584 551.918C484.028 551.81 484.49 552.025 484.684 552.439C485.784 554.79 486.16 556.386 486.26 558.985C486.277 559.432 485.973 559.825 485.539 559.93C484.946 560.073 484.361 559.631 484.278 559.027C484.052 557.385 483.494 555.049 482.872 553.281Z" fill="#715857"/>
<path d="M389.259 614.629C389.056 614.054 389.378 613.409 389.97 613.266C390.415 613.159 390.877 613.373 391.071 613.788C392.171 616.139 392.547 617.734 392.647 620.334C392.664 620.78 392.359 621.173 391.925 621.278C391.333 621.421 390.748 620.979 390.665 620.375C390.438 618.733 389.881 616.397 389.259 614.629Z" fill="#715857"/>
<path d="M475.443 558.264C475.241 557.689 475.562 557.044 476.155 556.901C476.599 556.793 477.061 557.008 477.255 557.422C478.355 559.773 478.732 561.369 478.832 563.968C478.849 564.415 478.544 564.808 478.11 564.913C477.518 565.056 476.933 564.614 476.849 564.01C476.623 562.367 476.065 560.032 475.443 558.264Z" fill="#715857"/>
<path d="M382.695 618.492C382.493 617.917 382.814 617.271 383.407 617.128C383.851 617.021 384.313 617.236 384.507 617.65C385.607 620.001 385.984 621.597 386.083 624.196C386.101 624.642 385.796 625.036 385.362 625.14C384.77 625.284 384.185 624.842 384.101 624.238C383.875 622.595 383.317 620.259 382.695 618.492Z" fill="#715857"/>
<path d="M468.879 562.126C468.677 561.551 468.998 560.906 469.591 560.763C470.036 560.655 470.497 560.87 470.691 561.284C471.791 563.635 472.168 565.231 472.268 567.83C472.285 568.277 471.98 568.67 471.546 568.775C470.954 568.918 470.369 568.476 470.286 567.872C470.059 566.23 469.501 563.894 468.879 562.126Z" fill="#715857"/>
<path d="M376.258 623.344C376.055 622.769 376.377 622.123 376.969 621.98C377.414 621.873 377.876 622.087 378.07 622.502C379.17 624.853 379.546 626.448 379.646 629.048C379.663 629.494 379.358 629.887 378.924 629.992C378.332 630.135 377.747 629.693 377.664 629.09C377.437 627.447 376.88 625.111 376.258 623.344Z" fill="#715857"/>
<path d="M462.442 566.978C462.239 566.403 462.561 565.758 463.153 565.615C463.598 565.507 464.06 565.722 464.254 566.136C465.354 568.487 465.73 570.083 465.83 572.682C465.847 573.129 465.543 573.522 465.109 573.627C464.516 573.77 463.931 573.328 463.848 572.724C463.622 571.082 463.064 568.746 462.442 566.978Z" fill="#715857"/>
<path d="M369.821 628.2C369.618 627.625 369.94 626.979 370.532 626.836C370.977 626.729 371.439 626.944 371.633 627.358C372.733 629.709 373.109 631.305 373.209 633.904C373.226 634.35 372.921 634.744 372.487 634.848C371.895 634.992 371.31 634.55 371.227 633.946C371 632.303 370.443 629.967 369.821 628.2Z" fill="#715857"/>
<path d="M456.005 571.835C455.802 571.26 456.124 570.614 456.716 570.471C457.161 570.364 457.623 570.578 457.817 570.993C458.917 573.344 459.293 574.939 459.393 577.539C459.41 577.985 459.106 578.378 458.672 578.483C458.079 578.626 457.494 578.184 457.411 577.581C457.184 575.938 456.627 573.602 456.005 571.835Z" fill="#715857"/>
<path d="M362.391 633.181C362.189 632.606 362.511 631.96 363.103 631.817C363.548 631.71 364.01 631.924 364.203 632.339C365.303 634.69 365.68 636.285 365.78 638.885C365.797 639.331 365.492 639.724 365.058 639.829C364.466 639.972 363.881 639.53 363.798 638.927C363.571 637.284 363.013 634.948 362.391 633.181Z" fill="#715857"/>
<path d="M448.575 576.815C448.373 576.24 448.695 575.595 449.287 575.452C449.732 575.344 450.194 575.559 450.387 575.973C451.488 578.324 451.864 579.92 451.964 582.519C451.981 582.965 451.676 583.359 451.242 583.464C450.65 583.607 450.065 583.165 449.982 582.561C449.755 580.918 449.198 578.582 448.575 576.815Z" fill="#715857"/>
<path d="M353.474 639.357C353.272 638.782 353.594 638.137 354.186 637.993C354.631 637.886 355.093 638.101 355.286 638.515C356.386 640.866 356.763 642.462 356.863 645.061C356.88 645.507 356.575 645.901 356.141 646.006C355.549 646.149 354.964 645.707 354.881 645.103C354.654 643.46 354.096 641.124 353.474 639.357Z" fill="#715857"/>
<path d="M439.659 581.992C439.457 581.417 439.778 580.771 440.371 580.628C440.815 580.521 441.277 580.735 441.471 581.15C442.571 583.501 442.947 585.096 443.047 587.696C443.065 588.142 442.76 588.535 442.326 588.64C441.733 588.783 441.149 588.341 441.065 587.738C440.839 586.095 440.281 583.759 439.659 581.992Z" fill="#715857"/>
<path d="M602.741 473.156C602.539 472.581 602.861 471.936 603.453 471.793C603.898 471.685 604.36 471.9 604.554 472.314C605.654 474.665 606.03 476.261 606.13 478.86C606.147 479.307 605.842 479.7 605.408 479.805C604.816 479.948 604.231 479.506 604.148 478.902C603.921 477.26 603.364 474.924 602.741 473.156Z" fill="#715857"/>
<path d="M688.926 416.791C688.723 416.216 689.045 415.571 689.637 415.428C690.082 415.32 690.544 415.535 690.738 415.949C691.838 418.3 692.214 419.896 692.314 422.495C692.331 422.941 692.026 423.335 691.592 423.44C691 423.583 690.415 423.141 690.332 422.537C690.105 420.894 689.548 418.558 688.926 416.791Z" fill="#715857"/>
<path d="M596.178 477.019C595.975 476.444 596.297 475.798 596.889 475.655C597.334 475.548 597.796 475.762 597.99 476.177C599.09 478.528 599.466 480.124 599.566 482.723C599.583 483.169 599.278 483.562 598.844 483.667C598.252 483.81 597.667 483.368 597.584 482.765C597.357 481.122 596.8 478.786 596.178 477.019Z" fill="#715857"/>
<path d="M682.362 420.653C682.159 420.078 682.481 419.433 683.073 419.29C683.518 419.182 683.98 419.397 684.174 419.811C685.274 422.162 685.65 423.758 685.75 426.357C685.767 426.803 685.462 427.197 685.028 427.302C684.436 427.445 683.851 427.003 683.768 426.399C683.541 424.756 682.984 422.421 682.362 420.653Z" fill="#715857"/>
<path d="M589.74 481.87C589.538 481.295 589.859 480.65 590.452 480.507C590.896 480.399 591.358 480.614 591.552 481.028C592.652 483.38 593.028 484.975 593.128 487.575C593.146 488.021 592.841 488.414 592.407 488.519C591.814 488.662 591.23 488.22 591.146 487.616C590.92 485.974 590.362 483.638 589.74 481.87Z" fill="#715857"/>
<path d="M675.924 425.505C675.722 424.93 676.043 424.285 676.636 424.142C677.08 424.034 677.542 424.249 677.736 424.663C678.836 427.014 679.213 428.61 679.312 431.209C679.33 431.656 679.025 432.049 678.591 432.154C677.999 432.297 677.414 431.855 677.33 431.251C677.104 429.608 676.546 427.273 675.924 425.505Z" fill="#715857"/>
<path d="M583.303 486.727C583.101 486.152 583.422 485.506 584.015 485.363C584.459 485.256 584.921 485.47 585.115 485.885C586.215 488.236 586.591 489.832 586.691 492.431C586.709 492.877 586.404 493.27 585.97 493.375C585.377 493.518 584.793 493.076 584.709 492.473C584.483 490.83 583.925 488.494 583.303 486.727Z" fill="#715857"/>
<path d="M669.487 430.361C669.285 429.786 669.606 429.141 670.199 428.998C670.643 428.89 671.105 429.105 671.299 429.519C672.399 431.871 672.775 433.466 672.875 436.065C672.893 436.512 672.588 436.905 672.154 437.01C671.562 437.153 670.977 436.711 670.893 436.107C670.667 434.465 670.109 432.129 669.487 430.361Z" fill="#715857"/>
<path d="M575.874 491.707C575.671 491.132 575.993 490.487 576.586 490.344C577.03 490.236 577.492 490.451 577.686 490.865C578.786 493.216 579.162 494.812 579.262 497.411C579.279 497.858 578.975 498.251 578.541 498.356C577.948 498.499 577.363 498.057 577.28 497.453C577.054 495.811 576.496 493.475 575.874 491.707Z" fill="#715857"/>
<path d="M662.058 435.342C661.855 434.767 662.177 434.122 662.77 433.978C663.214 433.871 663.676 434.086 663.87 434.5C664.97 436.851 665.346 438.447 665.446 441.046C665.463 441.492 665.159 441.886 664.725 441.991C664.132 442.134 663.547 441.692 663.464 441.088C663.238 439.445 662.68 437.109 662.058 435.342Z" fill="#715857"/>
<path d="M568.688 495.647C568.485 495.072 568.807 494.427 569.4 494.283C569.844 494.176 570.306 494.391 570.5 494.805C571.6 497.156 571.976 498.752 572.076 501.351C572.093 501.797 571.789 502.191 571.355 502.295C570.762 502.439 570.177 501.997 570.094 501.393C569.868 499.75 569.31 497.414 568.688 495.647Z" fill="#715857"/>
<path d="M654.872 439.281C654.669 438.706 654.991 438.061 655.584 437.918C656.028 437.81 656.49 438.025 656.684 438.439C657.784 440.79 658.16 442.386 658.26 444.985C658.277 445.432 657.973 445.825 657.539 445.93C656.946 446.073 656.361 445.631 656.278 445.027C656.052 443.385 655.494 441.049 654.872 439.281Z" fill="#715857"/>
<path d="M561.259 500.629C561.056 500.054 561.378 499.409 561.97 499.266C562.415 499.159 562.877 499.373 563.071 499.788C564.171 502.139 564.547 503.734 564.647 506.334C564.664 506.78 564.359 507.173 563.925 507.278C563.333 507.421 562.748 506.979 562.665 506.375C562.438 504.733 561.881 502.397 561.259 500.629Z" fill="#715857"/>
<path d="M647.443 444.264C647.241 443.689 647.562 443.044 648.155 442.901C648.599 442.793 649.061 443.008 649.255 443.422C650.355 445.773 650.732 447.369 650.832 449.968C650.849 450.415 650.544 450.808 650.11 450.913C649.518 451.056 648.933 450.614 648.849 450.01C648.623 448.367 648.065 446.032 647.443 444.264Z" fill="#715857"/>
<path d="M554.695 504.492C554.493 503.917 554.814 503.271 555.407 503.128C555.851 503.021 556.313 503.236 556.507 503.65C557.607 506.001 557.984 507.597 558.083 510.196C558.101 510.642 557.796 511.036 557.362 511.14C556.77 511.284 556.185 510.842 556.101 510.238C555.875 508.595 555.317 506.259 554.695 504.492Z" fill="#715857"/>
<path d="M640.879 448.126C640.677 447.551 640.998 446.906 641.591 446.763C642.036 446.655 642.497 446.87 642.691 447.284C643.791 449.635 644.168 451.231 644.268 453.83C644.285 454.277 643.98 454.67 643.546 454.775C642.954 454.918 642.369 454.476 642.286 453.872C642.059 452.23 641.501 449.894 640.879 448.126Z" fill="#715857"/>
<path d="M548.258 509.344C548.055 508.769 548.377 508.123 548.969 507.98C549.414 507.873 549.876 508.087 550.07 508.502C551.17 510.853 551.546 512.448 551.646 515.048C551.663 515.494 551.358 515.887 550.924 515.992C550.332 516.135 549.747 515.693 549.664 515.09C549.437 513.447 548.88 511.111 548.258 509.344Z" fill="#715857"/>
<path d="M634.442 452.978C634.239 452.403 634.561 451.758 635.153 451.615C635.598 451.507 636.06 451.722 636.254 452.136C637.354 454.487 637.73 456.083 637.83 458.682C637.847 459.129 637.543 459.522 637.109 459.627C636.516 459.77 635.931 459.328 635.848 458.724C635.622 457.082 635.064 454.746 634.442 452.978Z" fill="#715857"/>
<path d="M541.821 514.2C541.618 513.625 541.94 512.979 542.532 512.836C542.977 512.729 543.439 512.944 543.633 513.358C544.733 515.709 545.109 517.305 545.209 519.904C545.226 520.35 544.921 520.744 544.487 520.848C543.895 520.992 543.31 520.55 543.227 519.946C543 518.303 542.443 515.967 541.821 514.2Z" fill="#715857"/>
<path d="M628.005 457.835C627.802 457.26 628.124 456.614 628.716 456.471C629.161 456.364 629.623 456.578 629.817 456.993C630.917 459.344 631.293 460.939 631.393 463.539C631.41 463.985 631.106 464.378 630.672 464.483C630.079 464.626 629.494 464.184 629.411 463.581C629.184 461.938 628.627 459.602 628.005 457.835Z" fill="#715857"/>
<path d="M534.391 519.181C534.189 518.606 534.511 517.96 535.103 517.817C535.548 517.71 536.01 517.924 536.203 518.339C537.303 520.69 537.68 522.285 537.78 524.885C537.797 525.331 537.492 525.724 537.058 525.829C536.466 525.972 535.881 525.53 535.798 524.927C535.571 523.284 535.013 520.948 534.391 519.181Z" fill="#715857"/>
<path d="M620.575 462.815C620.373 462.24 620.695 461.595 621.287 461.452C621.732 461.344 622.194 461.559 622.387 461.973C623.488 464.324 623.864 465.92 623.964 468.519C623.981 468.965 623.676 469.359 623.242 469.464C622.65 469.607 622.065 469.165 621.982 468.561C621.755 466.918 621.198 464.582 620.575 462.815Z" fill="#715857"/>
<path d="M525.474 525.357C525.272 524.782 525.594 524.137 526.186 523.993C526.631 523.886 527.093 524.101 527.286 524.515C528.386 526.866 528.763 528.462 528.863 531.061C528.88 531.507 528.575 531.901 528.141 532.006C527.549 532.149 526.964 531.707 526.881 531.103C526.654 529.46 526.096 527.124 525.474 525.357Z" fill="#715857"/>
<path d="M611.659 467.992C611.457 467.417 611.778 466.771 612.371 466.628C612.815 466.521 613.277 466.735 613.471 467.15C614.571 469.501 614.947 471.096 615.047 473.696C615.065 474.142 614.76 474.535 614.326 474.64C613.733 474.783 613.149 474.341 613.065 473.738C612.839 472.095 612.281 469.759 611.659 467.992Z" fill="#715857"/>
<path d="M774.741 359.156C774.539 358.581 774.861 357.936 775.453 357.793C775.898 357.685 776.36 357.9 776.554 358.314C777.654 360.665 778.03 362.261 778.13 364.86C778.147 365.307 777.842 365.7 777.408 365.805C776.816 365.948 776.231 365.506 776.148 364.902C775.921 363.26 775.364 360.924 774.741 359.156Z" fill="#715857"/>
<path d="M768.178 363.018C767.975 362.443 768.297 361.798 768.889 361.655C769.334 361.547 769.796 361.762 769.99 362.176C771.09 364.527 771.466 366.123 771.566 368.722C771.583 369.169 771.278 369.562 770.844 369.667C770.252 369.81 769.667 369.368 769.584 368.764C769.357 367.122 768.8 364.786 768.178 363.018Z" fill="#715857"/>
<path d="M761.74 367.87C761.538 367.295 761.859 366.65 762.452 366.507C762.896 366.399 763.358 366.614 763.552 367.028C764.652 369.38 765.028 370.975 765.128 373.575C765.146 374.021 764.841 374.414 764.407 374.519C763.814 374.662 763.23 374.22 763.146 373.616C762.92 371.974 762.362 369.638 761.74 367.87Z" fill="#715857"/>
<path d="M755.303 372.727C755.101 372.152 755.422 371.506 756.015 371.363C756.459 371.256 756.921 371.47 757.115 371.885C758.215 374.236 758.591 375.832 758.691 378.431C758.709 378.877 758.404 379.27 757.97 379.375C757.377 379.518 756.793 379.076 756.709 378.473C756.483 376.83 755.925 374.494 755.303 372.727Z" fill="#715857"/>
<path d="M747.874 377.707C747.671 377.132 747.993 376.487 748.586 376.344C749.03 376.236 749.492 376.451 749.686 376.865C750.786 379.216 751.162 380.812 751.262 383.411C751.279 383.857 750.975 384.251 750.541 384.356C749.948 384.499 749.363 384.057 749.28 383.453C749.054 381.81 748.496 379.474 747.874 377.707Z" fill="#715857"/>
<path d="M740.688 381.647C740.485 381.072 740.807 380.426 741.4 380.283C741.844 380.176 742.306 380.39 742.5 380.805C743.6 383.156 743.976 384.751 744.076 387.351C744.093 387.797 743.789 388.19 743.355 388.295C742.762 388.438 742.177 387.996 742.094 387.393C741.868 385.75 741.31 383.414 740.688 381.647Z" fill="#715857"/>
<path d="M733.259 386.629C733.057 386.054 733.378 385.409 733.971 385.266C734.415 385.159 734.877 385.373 735.071 385.788C736.171 388.139 736.547 389.734 736.647 392.334C736.665 392.78 736.36 393.173 735.926 393.278C735.334 393.421 734.749 392.979 734.665 392.375C734.439 390.733 733.881 388.397 733.259 386.629Z" fill="#715857"/>
<path d="M726.695 390.492C726.493 389.917 726.814 389.271 727.407 389.128C727.851 389.021 728.313 389.235 728.507 389.65C729.607 392.001 729.984 393.596 730.083 396.196C730.101 396.642 729.796 397.035 729.362 397.14C728.77 397.283 728.185 396.841 728.101 396.238C727.875 394.595 727.317 392.259 726.695 390.492Z" fill="#715857"/>
<path d="M720.258 395.344C720.055 394.769 720.377 394.123 720.969 393.98C721.414 393.873 721.876 394.087 722.07 394.502C723.17 396.853 723.546 398.448 723.646 401.048C723.663 401.494 723.358 401.887 722.924 401.992C722.332 402.135 721.747 401.693 721.664 401.09C721.437 399.447 720.88 397.111 720.258 395.344Z" fill="#715857"/>
<path d="M806.442 338.978C806.239 338.403 806.561 337.758 807.153 337.615C807.598 337.507 808.06 337.722 808.254 338.136C809.354 340.487 809.73 342.083 809.83 344.682C809.847 345.129 809.543 345.522 809.109 345.627C808.516 345.77 807.931 345.328 807.848 344.724C807.622 343.082 807.064 340.746 806.442 338.978Z" fill="#715857"/>
<path d="M713.821 400.2C713.618 399.625 713.94 398.979 714.532 398.836C714.977 398.729 715.439 398.944 715.633 399.358C716.733 401.709 717.109 403.305 717.209 405.904C717.226 406.35 716.921 406.744 716.487 406.848C715.895 406.992 715.31 406.55 715.227 405.946C715 404.303 714.443 401.967 713.821 400.2Z" fill="#715857"/>
<path d="M800.005 343.835C799.802 343.26 800.124 342.614 800.716 342.471C801.161 342.364 801.623 342.578 801.817 342.993C802.917 345.344 803.293 346.939 803.393 349.539C803.41 349.985 803.106 350.378 802.672 350.483C802.079 350.626 801.494 350.184 801.411 349.581C801.184 347.938 800.627 345.602 800.005 343.835Z" fill="#715857"/>
<path d="M706.391 405.18C706.189 404.605 706.511 403.96 707.103 403.817C707.548 403.709 708.01 403.924 708.203 404.338C709.303 406.689 709.68 408.285 709.78 410.884C709.797 411.331 709.492 411.724 709.058 411.829C708.466 411.972 707.881 411.53 707.798 410.926C707.571 409.283 707.013 406.948 706.391 405.18Z" fill="#715857"/>
<path d="M792.575 348.815C792.373 348.24 792.695 347.595 793.287 347.452C793.732 347.344 794.194 347.559 794.387 347.973C795.488 350.324 795.864 351.92 795.964 354.519C795.981 354.965 795.676 355.359 795.242 355.464C794.65 355.607 794.065 355.165 793.982 354.561C793.755 352.918 793.198 350.582 792.575 348.815Z" fill="#715857"/>
<path d="M697.474 411.357C697.272 410.782 697.594 410.137 698.186 409.993C698.631 409.886 699.093 410.101 699.286 410.515C700.386 412.866 700.763 414.462 700.863 417.061C700.88 417.507 700.575 417.901 700.141 418.006C699.549 418.149 698.964 417.707 698.881 417.103C698.654 415.46 698.096 413.124 697.474 411.357Z" fill="#715857"/>
<path d="M783.659 354.992C783.457 354.417 783.778 353.771 784.371 353.628C784.815 353.521 785.277 353.735 785.471 354.15C786.571 356.501 786.947 358.096 787.047 360.696C787.065 361.142 786.76 361.535 786.326 361.64C785.733 361.783 785.149 361.341 785.065 360.738C784.839 359.095 784.281 356.759 783.659 354.992Z" fill="#715857"/>
<defs>
<linearGradient id="paint0_linear_239_4" x1="720" y1="533.5" x2="584.5" y2="313" gradientUnits="userSpaceOnUse">
<stop stop-color="#D9D9D9"/>
<stop offset="1" stop-color="#D9D9D9" stop-opacity="0"/>
</linearGradient>
</defs>
</svg>
