<svg width="485" height="403" viewBox="0 0 485 403" fill="none" xmlns="http://www.w3.org/2000/svg">
<path d="M171.471 183.656C193.915 167.461 212.372 154.503 230.661 142.074M172.054 230.26C171.986 222.483 169.888 217.949 177.015 215.172M172.054 230.26C177.614 259.097 180.812 281.72 174.224 288.769C167.636 295.818 164.53 299.151 161.849 302.115L127.525 251.293C129.016 249.746 130.442 248.278 131.824 246.873M172.054 230.26C192.918 224.294 212.958 214.36 233.576 201.933M164.704 217.338C150.515 228.832 142.531 235.98 131.824 246.873M164.266 223.507L170.763 260.44L158.712 264.083L148.85 236.881M131.824 246.873C122.563 249.151 117.544 250.475 106.902 252.383C102.145 252.815 101.079 252.171 102.761 249.05C104.973 245.959 106.89 243.308 108.769 240.886M123.107 226.179L126.581 228.614C137.832 222.378 149.762 210.321 151.153 209.569C152.543 208.816 154.6 208.962 156.656 209.108M123.107 226.179C116.757 231.435 112.854 235.618 108.769 240.886M123.107 226.179L101.572 199.977M163.523 204.854C175.165 200.449 180.016 195.036 186.996 182.448C183.06 184.175 180.905 185.227 175.756 184.933C170.608 184.639 126.64 171.236 123.918 170.192C121.196 169.147 116.233 166.088 108.192 167.374C98.8345 170.589 94.4672 174.858 86.2879 181.381L101.572 199.977M108.769 240.886L28.1436 205.824C42.026 197.809 54.4207 193.587 65.3683 195.214L101.572 199.977M100.208 202.793L88.6816 200.759L84.3316 210.662L109.295 216.932M230.661 142.074C206.822 126.367 192.143 119.696 163.022 112.545C112.1 96.3374 82.1728 88.2172 27.8663 74.3845C46.3794 67.5397 57.1174 62.8173 71.9258 65.1105C164.258 73.4269 217.61 76.5424 306.211 92.4813M230.661 142.074C253.596 126.489 276.268 111.737 306.211 92.4813M306.211 92.4813C306.967 91.9955 307.727 91.5068 308.492 91.0151C346.198 65.1787 369.072 46.0071 399.844 38.8993C431.343 35.4325 446.735 42.8346 426.216 64.7206C405.094 82.8848 388.91 95.5862 371.312 108.394M247.069 125.681L221.85 109.303L57.0341 72.8071L59.6149 67.2763L245.41 87.3899L283.405 98.4745M313.265 155.666L316.101 160.244L309.089 166.554L329.47 184.291L385.511 300.844L395.36 299.112L363.166 165.164L347.048 137.031L358.725 128.377L358.497 121.309M371.312 108.394C358.935 117.402 345.858 126.463 329.872 137.514C326.337 139.839 322.853 142.156 319.417 144.461M371.312 108.394C364.079 115.606 364.154 122.531 366.772 136.607L398.142 297.607C398.608 306.132 392.661 309.74 386.341 319.99C380.021 330.24 381.791 325.867 381.791 325.867C378.564 312.338 374.392 305.185 366.284 292.55C347.484 257.709 316.106 206.442 313.675 201.285C311.245 196.128 297.87 187.412 286.345 178.678M319.417 144.461C294.863 175.149 271.362 194.513 233.576 201.933M319.417 144.461L233.576 201.933" stroke="black"/>
<path d="M63.4921 84.3425C50.0334 86.3948 41.5295 88.7763 26.0075 93.4751C88.7095 109.39 176.424 137.581 181.289 139.264C186.154 140.946 203.632 146.338 212.65 153.038M430.481 60.9038C438.489 67.3868 435.629 75.7362 421.285 89.4286C406.94 103.121 390.161 114.774 367.011 132.991M396.547 309.544C399.78 319.521 399.565 325.19 389.466 335.665L382.075 345.596C378.253 334.367 375.201 328.026 367.84 316.624C345.296 274.299 332.918 249.836 307.097 216.636L285.239 199.159M285.239 199.159C291.264 194.171 293.274 191.576 297.295 186.885M285.239 199.159C272.119 209.626 260.466 214.179 234.308 221.319M175.612 248.398C193.907 244.429 204.273 239.533 222.863 228.409C249.73 211.53 264.787 201.953 291.59 183.319M176.779 286.776C179.941 299.32 177.531 305.867 167.349 316.865C165.596 318.54 164.099 319.585 161.062 321.525L127.316 271.109L131.142 266.882M134.967 262.656L131.142 266.882M116.697 251.147L109.669 260.252M131.142 266.882L106.201 272.285L102.64 269.358L109.669 260.252M109.669 260.252L27.5297 226.219C36.5076 219.959 41.7657 217.636 51.6911 216.384" stroke="#92869E"/>
<path d="M115.011 100.156C115.011 100.156 109.33 108.262 110.315 108.089C111.3 107.916 119.609 106.226 122.106 102.969" stroke="black"/>
<path d="M138.448 108.724C138.448 108.724 132.767 116.831 133.751 116.658C134.736 116.485 143.046 114.795 145.543 111.538" stroke="black"/>
<path d="M164.628 115.288C164.628 115.288 157.431 125.692 158.682 125.472C159.933 125.252 170.486 123.103 173.65 118.923" stroke="black"/>
<path d="M193.405 125.456C193.405 125.456 188.424 132.424 189.284 132.273C190.144 132.121 197.4 130.65 199.588 127.849" stroke="black"/>
<path d="M217.225 136.496C217.225 136.496 213.714 142.19 214.339 142.08C214.964 141.97 220.238 140.88 221.786 138.594" stroke="black"/>
<path d="M298.826 192.708C296.863 195.435 296.14 197.063 296.1 200.295C300.18 199.831 301.488 198.703 303.546 196.446" stroke="black"/>
<path d="M310.695 205.342C308.732 208.069 308.009 209.698 307.968 212.929C312.048 212.465 313.357 211.337 315.414 209.081" stroke="black"/>
<path d="M320.767 219.308C317.84 224.054 316.295 226.541 313.636 230.717C320.278 231.555 322.387 229.765 326.093 226.494M331.619 237.707C328.094 242.057 326.5 244.594 323.995 249.201C329.833 248.247 332.359 246.977 335.7 243.588M342.557 256.597C339.472 259.528 338.603 261.179 337.282 264.125C340.963 264.294 343.166 263.676 347.131 262.392" stroke="black"/>
<path d="M203.472 196.518C203.278 196.277 203.342 195.911 203.62 195.774C203.816 195.678 204.054 195.732 204.183 195.908C204.718 196.635 204.984 197.165 205.191 197.944C205.247 198.152 205.142 198.369 204.948 198.464C204.667 198.602 204.335 198.427 204.262 198.122C204.119 197.517 203.905 197.056 203.472 196.518Z" fill="black"/>
<circle cx="219.353" cy="185.366" r="0.5" transform="rotate(-9.97737 219.353 185.366)" fill="black"/>
<circle cx="264.958" cy="156.021" r="0.5" transform="rotate(-9.97737 264.958 156.021)" fill="black"/>
<path d="M207.481 193.919C207.286 193.677 207.35 193.311 207.628 193.174C207.824 193.078 208.062 193.132 208.191 193.308C208.726 194.035 208.992 194.565 209.2 195.344C209.255 195.552 209.151 195.769 208.957 195.864C208.675 196.002 208.343 195.827 208.271 195.522C208.127 194.917 207.913 194.456 207.481 193.919Z" fill="black"/>
<path d="M210.089 191.429C209.894 191.188 209.958 190.821 210.237 190.684C210.433 190.588 210.67 190.643 210.8 190.818C211.335 191.545 211.6 192.076 211.808 192.854C211.863 193.063 211.759 193.279 211.565 193.374C211.283 193.513 210.951 193.338 210.879 193.032C210.735 192.427 210.521 191.966 210.089 191.429Z" fill="black"/>
<path d="M212.87 189.924C212.676 189.683 212.739 189.317 213.018 189.18C213.214 189.084 213.451 189.138 213.581 189.314C214.116 190.041 214.382 190.571 214.589 191.35C214.645 191.558 214.54 191.775 214.346 191.87C214.064 192.008 213.732 191.833 213.66 191.528C213.517 190.923 213.303 190.462 212.87 189.924Z" fill="black"/>
<path d="M228.55 180.938C228.356 180.696 228.42 180.33 228.698 180.193C228.894 180.097 229.132 180.151 229.261 180.327C229.796 181.054 230.062 181.585 230.269 182.363C230.325 182.572 230.22 182.788 230.026 182.883C229.745 183.021 229.413 182.846 229.34 182.541C229.197 181.936 228.983 181.475 228.55 180.938Z" fill="black"/>
<path d="M232.558 178.338C232.364 178.097 232.428 177.73 232.706 177.593C232.902 177.497 233.14 177.552 233.269 177.727C233.804 178.454 234.07 178.985 234.277 179.763C234.333 179.972 234.228 180.188 234.034 180.283C233.753 180.422 233.421 180.247 233.348 179.941C233.205 179.336 232.991 178.875 232.558 178.338Z" fill="black"/>
<path d="M235.167 175.849C234.972 175.607 235.036 175.241 235.314 175.104C235.51 175.008 235.748 175.062 235.877 175.238C236.412 175.965 236.678 176.495 236.885 177.274C236.941 177.482 236.836 177.699 236.643 177.794C236.361 177.932 236.029 177.757 235.956 177.452C235.813 176.847 235.599 176.386 235.167 175.849Z" fill="black"/>
<path d="M237.948 174.344C237.753 174.102 237.817 173.736 238.096 173.599C238.291 173.503 238.529 173.557 238.658 173.733C239.193 174.46 239.459 174.991 239.667 175.769C239.722 175.978 239.618 176.194 239.424 176.289C239.142 176.427 238.81 176.252 238.738 175.947C238.594 175.342 238.38 174.881 237.948 174.344Z" fill="black"/>
<path d="M241.126 171.618C240.931 171.377 240.995 171.01 241.274 170.873C241.469 170.777 241.707 170.832 241.836 171.007C242.371 171.734 242.637 172.265 242.845 173.043C242.9 173.252 242.796 173.468 242.602 173.563C242.32 173.702 241.988 173.527 241.916 173.221C241.772 172.616 241.558 172.155 241.126 171.618Z" fill="black"/>
<path d="M243.757 169.261C243.563 169.019 243.626 168.653 243.905 168.516C244.101 168.42 244.338 168.474 244.468 168.65C245.003 169.377 245.269 169.907 245.476 170.686C245.532 170.894 245.427 171.111 245.233 171.206C244.951 171.344 244.619 171.169 244.547 170.864C244.404 170.259 244.19 169.798 243.757 169.261Z" fill="black"/>
<path d="M247.523 167.583C247.329 167.341 247.393 166.975 247.671 166.838C247.867 166.742 248.105 166.796 248.234 166.972C248.769 167.699 249.035 168.229 249.242 169.008C249.298 169.216 249.193 169.433 248.999 169.528C248.718 169.666 248.386 169.491 248.313 169.186C248.17 168.581 247.956 168.12 247.523 167.583Z" fill="black"/>
<path d="M250.131 165.093C249.937 164.852 250.001 164.485 250.279 164.348C250.475 164.252 250.713 164.307 250.842 164.482C251.377 165.209 251.643 165.74 251.85 166.518C251.906 166.727 251.801 166.943 251.607 167.038C251.326 167.177 250.994 167.002 250.921 166.696C250.778 166.091 250.564 165.63 250.131 165.093Z" fill="black"/>
<path d="M252.913 163.588C252.718 163.347 252.782 162.98 253.061 162.844C253.257 162.748 253.494 162.802 253.624 162.978C254.159 163.705 254.424 164.235 254.632 165.014C254.687 165.222 254.583 165.439 254.389 165.534C254.107 165.672 253.775 165.497 253.703 165.192C253.559 164.587 253.345 164.125 252.913 163.588Z" fill="black"/>
<path d="M255.521 161.099C255.326 160.857 255.39 160.491 255.669 160.354C255.864 160.258 256.102 160.312 256.231 160.488C256.766 161.215 257.032 161.746 257.24 162.524C257.295 162.733 257.191 162.949 256.997 163.044C256.715 163.182 256.383 163.007 256.311 162.702C256.167 162.097 255.953 161.636 255.521 161.099Z" fill="black"/>
<path d="M273.809 149.623C273.615 149.381 273.678 149.015 273.957 148.878C274.153 148.782 274.39 148.836 274.52 149.012C275.055 149.739 275.321 150.27 275.528 151.048C275.584 151.257 275.479 151.473 275.285 151.568C275.003 151.706 274.671 151.531 274.599 151.226C274.456 150.621 274.242 150.16 273.809 149.623Z" fill="black"/>
<path d="M277.817 147.023C277.623 146.781 277.687 146.415 277.965 146.278C278.161 146.182 278.399 146.236 278.528 146.412C279.063 147.139 279.329 147.67 279.536 148.448C279.592 148.657 279.487 148.873 279.293 148.968C279.011 149.107 278.679 148.931 278.607 148.626C278.464 148.021 278.25 147.56 277.817 147.023Z" fill="black"/>
<path d="M280.425 144.533C280.231 144.292 280.295 143.925 280.573 143.789C280.769 143.693 281.007 143.747 281.136 143.923C281.671 144.65 281.937 145.18 282.144 145.959C282.2 146.167 282.095 146.384 281.901 146.479C281.62 146.617 281.288 146.442 281.215 146.137C281.072 145.532 280.858 145.07 280.425 144.533Z" fill="black"/>
<path d="M283.207 143.029C283.012 142.787 283.076 142.421 283.355 142.284C283.55 142.188 283.788 142.242 283.918 142.418C284.452 143.145 284.718 143.676 284.926 144.454C284.981 144.663 284.877 144.879 284.683 144.974C284.401 145.112 284.069 144.937 283.997 144.632C283.853 144.027 283.639 143.566 283.207 143.029Z" fill="black"/>
<path d="M286.385 140.303C286.19 140.061 286.254 139.695 286.532 139.558C286.728 139.462 286.966 139.516 287.095 139.692C287.63 140.419 287.896 140.95 288.103 141.728C288.159 141.937 288.054 142.153 287.861 142.248C287.579 142.387 287.247 142.212 287.175 141.906C287.031 141.301 286.817 140.84 286.385 140.303Z" fill="black"/>
<path d="M289.016 137.945C288.821 137.704 288.885 137.337 289.164 137.201C289.36 137.105 289.597 137.159 289.727 137.335C290.262 138.062 290.527 138.592 290.735 139.371C290.79 139.579 290.686 139.796 290.492 139.891C290.21 140.029 289.878 139.854 289.806 139.549C289.662 138.944 289.448 138.482 289.016 137.945Z" fill="black"/>
<path d="M292.782 136.267C292.588 136.026 292.652 135.66 292.93 135.523C293.126 135.427 293.364 135.481 293.493 135.657C294.028 136.384 294.294 136.914 294.501 137.693C294.557 137.901 294.452 138.118 294.258 138.213C293.977 138.351 293.645 138.176 293.572 137.871C293.429 137.266 293.215 136.805 292.782 136.267Z" fill="black"/>
<path d="M295.39 133.778C295.196 133.536 295.26 133.17 295.538 133.033C295.734 132.937 295.971 132.991 296.101 133.167C296.636 133.894 296.902 134.425 297.109 135.203C297.165 135.412 297.06 135.628 296.866 135.723C296.584 135.862 296.252 135.686 296.18 135.381C296.037 134.776 295.823 134.315 295.39 133.778Z" fill="black"/>
<path d="M298.172 132.273C297.977 132.032 298.041 131.665 298.319 131.529C298.515 131.432 298.753 131.487 298.882 131.663C299.417 132.389 299.683 132.92 299.891 133.698C299.946 133.907 299.841 134.123 299.648 134.219C299.366 134.357 299.034 134.182 298.962 133.877C298.818 133.272 298.604 132.81 298.172 132.273Z" fill="black"/>
<path d="M300.78 129.784C300.585 129.542 300.649 129.176 300.928 129.039C301.123 128.943 301.361 128.997 301.491 129.173C302.025 129.9 302.291 130.431 302.499 131.209C302.554 131.418 302.45 131.634 302.256 131.729C301.974 131.867 301.642 131.692 301.57 131.387C301.426 130.782 301.212 130.321 300.78 129.784Z" fill="black"/>
<path d="M309.101 125.138C308.906 124.896 308.97 124.53 309.248 124.393C309.444 124.297 309.682 124.351 309.811 124.527C310.346 125.254 310.612 125.785 310.819 126.563C310.875 126.772 310.77 126.988 310.577 127.083C310.295 127.222 309.963 127.046 309.891 126.741C309.747 126.136 309.533 125.675 309.101 125.138Z" fill="black"/>
<path d="M313.109 122.538C312.914 122.297 312.978 121.93 313.256 121.793C313.452 121.697 313.69 121.752 313.819 121.927C314.354 122.654 314.62 123.185 314.828 123.963C314.883 124.172 314.778 124.388 314.585 124.483C314.303 124.622 313.971 124.447 313.899 124.141C313.755 123.536 313.541 123.075 313.109 122.538Z" fill="black"/>
<path d="M315.717 120.049C315.522 119.807 315.586 119.441 315.865 119.304C316.061 119.208 316.298 119.262 316.428 119.438C316.962 120.165 317.228 120.695 317.436 121.474C317.491 121.682 317.387 121.899 317.193 121.994C316.911 122.132 316.579 121.957 316.507 121.652C316.363 121.047 316.149 120.586 315.717 120.049Z" fill="black"/>
<path d="M318.498 118.544C318.304 118.302 318.368 117.936 318.646 117.799C318.842 117.703 319.08 117.757 319.209 117.933C319.744 118.66 320.01 119.191 320.217 119.969C320.273 120.178 320.168 120.394 319.974 120.489C319.693 120.627 319.361 120.452 319.288 120.147C319.145 119.542 318.931 119.081 318.498 118.544Z" fill="black"/>
<path d="M321.676 115.818C321.482 115.577 321.545 115.21 321.824 115.073C322.02 114.977 322.257 115.032 322.387 115.207C322.922 115.934 323.188 116.465 323.395 117.243C323.45 117.452 323.346 117.668 323.152 117.763C322.87 117.902 322.538 117.727 322.466 117.421C322.323 116.816 322.109 116.355 321.676 115.818Z" fill="black"/>
<path d="M324.307 113.461C324.113 113.219 324.177 112.853 324.455 112.716C324.651 112.62 324.889 112.674 325.018 112.85C325.553 113.577 325.819 114.107 326.026 114.886C326.082 115.094 325.977 115.311 325.783 115.406C325.502 115.544 325.17 115.369 325.097 115.064C324.954 114.459 324.74 113.998 324.307 113.461Z" fill="black"/>
<path d="M328.074 111.783C327.879 111.541 327.943 111.175 328.222 111.038C328.417 110.942 328.655 110.996 328.784 111.172C329.319 111.899 329.585 112.429 329.793 113.208C329.848 113.416 329.744 113.633 329.55 113.728C329.268 113.866 328.936 113.691 328.864 113.386C328.72 112.781 328.506 112.32 328.074 111.783Z" fill="black"/>
<path d="M330.682 109.293C330.487 109.052 330.551 108.685 330.829 108.548C331.025 108.452 331.263 108.507 331.392 108.682C331.927 109.409 332.193 109.94 332.401 110.718C332.456 110.927 332.351 111.143 332.158 111.238C331.876 111.377 331.544 111.202 331.472 110.896C331.328 110.291 331.114 109.83 330.682 109.293Z" fill="black"/>
<path d="M333.463 107.788C333.269 107.547 333.333 107.18 333.611 107.044C333.807 106.948 334.044 107.002 334.174 107.178C334.709 107.905 334.975 108.435 335.182 109.214C335.238 109.422 335.133 109.639 334.939 109.734C334.657 109.872 334.325 109.697 334.253 109.392C334.11 108.787 333.896 108.326 333.463 107.788Z" fill="black"/>
<path d="M336.071 105.299C335.877 105.057 335.941 104.691 336.219 104.554C336.415 104.458 336.653 104.512 336.782 104.688C337.317 105.415 337.583 105.946 337.79 106.724C337.846 106.933 337.741 107.149 337.547 107.244C337.266 107.382 336.934 107.207 336.861 106.902C336.718 106.297 336.504 105.836 336.071 105.299Z" fill="black"/>
<path d="M421.832 40.5952C424.203 42.1597 424.974 44.0691 424.934 47.1016C424.904 49.4449 424.888 50.6165 425.808 50.702C426.727 50.7874 426.887 49.8673 427.207 48.027C427.474 46.4902 427.269 44.547 426.61 41.7853" stroke="black"/>
<path d="M388.24 245.007C407.997 238.993 423.618 221.014 422.838 216.582C422.063 212.174 419.779 209.209 411.935 205.884C411.852 205.849 411.764 205.824 411.676 205.814C408.53 205.457 404.632 207.097 400.778 209.5M384.428 223.339C384.428 223.339 392.503 214.659 400.778 209.5M383.129 215.953C387.419 208.598 395.035 205.379 400.778 209.5M373.828 168.852C379.462 163.68 383.713 158.384 388.232 155.5M377.466 189.535C377.466 189.535 384.533 189.307 397.688 180.393C410.842 171.479 408.244 156.706 398.6 153.833C394.645 152.655 391.374 153.494 388.232 155.5M372.296 163.03C378.234 157.769 381.641 155.464 388.232 155.5M246.547 83.108C250.048 78.7083 254.129 74.7787 258.345 72.2554M277.912 88.2514C279.14 77.9609 278.587 71.887 270.594 69.7393C266.657 68.6814 262.437 69.8057 258.345 72.2554M258.345 72.2554C252.448 72.1597 247.77 74.8554 238.234 82.0318M164.091 73.245C166.854 69.1129 170.095 64.902 173.751 61.7844M197.339 77.5495C199.089 64.3813 196.51 58.4037 187.126 57.0084C182.228 56.2801 177.743 58.3806 173.751 61.7844M156.444 73.0672C162.837 65.751 166.522 62.4486 173.751 61.7844" stroke="black"/>
<circle cx="351.071" cy="97.2115" r="0.5" transform="rotate(-9.97737 351.071 97.2115)" fill="black"/>
<path d="M220.143 193.214C219.006 188.817 217.858 186.125 215.056 182.21C214.806 181.861 214.798 181.389 215.054 181.044C216.759 178.752 218.086 177.86 220.307 177.153C220.679 177.034 221.086 177.157 221.336 177.457C224.033 180.692 225.234 183.196 226.857 187.853C226.911 188.009 226.927 188.18 226.897 188.343C226.29 191.636 224.56 192.677 221.478 193.905C220.919 194.128 220.294 193.797 220.143 193.214Z" stroke="black"/>
<path d="M265.169 163.463C264.033 159.066 262.884 156.374 260.082 152.459C259.832 152.11 259.824 151.637 260.08 151.293C261.785 149.001 263.112 148.109 265.333 147.401C265.705 147.283 266.112 147.406 266.362 147.706C269.059 150.941 270.26 153.445 271.883 158.102C271.937 158.258 271.953 158.429 271.923 158.592C271.316 161.885 269.586 162.926 266.504 164.153C265.945 164.376 265.32 164.046 265.169 163.463Z" stroke="black"/>
<path d="M351.282 104.653C350.146 100.257 348.997 97.5648 346.195 93.6494C345.946 93.3005 345.938 92.8282 346.194 92.4839C347.898 90.1916 349.225 89.2998 351.447 88.592C351.819 88.4735 352.226 88.5968 352.476 88.8967C355.172 92.1317 356.373 94.6358 357.996 99.2926C358.05 99.4488 358.066 99.6196 358.036 99.7822C357.429 103.075 355.7 104.117 352.618 105.344C352.058 105.567 351.433 105.237 351.282 104.653Z" stroke="black"/>
<g opacity="0.95">
<path d="M395.5 76.6869C400.798 71.3578 402.955 68.4503 402.5 63.6869C403.553 61.8596 404.495 61.8341 406.5 62.6869C407.343 70.8399 404.051 73.4435 395.5 76.6869Z" fill="#A9ADC6"/>
<path d="M396 62.187C391.5 67.187 378.571 76.3444 364 82.687C381.592 78.177 398.5 72.687 402.5 63.687C403.687 62.433 404.621 62.2333 407 63.187C404.594 58.4903 400.5 57.187 396 62.187Z" fill="#92869E"/>
</g>
<path d="M361.719 89.4821C361.524 89.2405 361.588 88.8741 361.867 88.7374C362.062 88.6412 362.3 88.6956 362.429 88.8714C362.964 89.5982 363.23 90.1288 363.438 90.9072C363.493 91.1158 363.389 91.3322 363.195 91.4274C362.913 91.5657 362.581 91.3906 362.509 91.0853C362.365 90.4803 362.151 90.0192 361.719 89.4821Z" fill="black"/>
<path d="M365.727 86.8823C365.532 86.6407 365.596 86.2743 365.875 86.1376C366.071 86.0414 366.308 86.0957 366.438 86.2715C366.973 86.9984 367.238 87.529 367.446 88.3074C367.501 88.516 367.397 88.7324 367.203 88.8275C366.921 88.9659 366.589 88.7908 366.517 88.4854C366.373 87.8805 366.159 87.4193 365.727 86.8823Z" fill="black"/>
<path d="M368.335 84.3927C368.141 84.1512 368.204 83.7848 368.483 83.6481C368.679 83.5519 368.916 83.6062 369.046 83.782C369.581 84.5089 369.846 85.0395 370.054 85.8179C370.109 86.0265 370.005 86.2429 369.811 86.338C369.529 86.4763 369.197 86.3013 369.125 85.9959C368.982 85.391 368.767 84.9298 368.335 84.3927Z" fill="black"/>
<path d="M371.116 82.8881C370.922 82.6465 370.986 82.2801 371.264 82.1434C371.46 82.0472 371.698 82.1016 371.827 82.2774C372.362 83.0042 372.628 83.5348 372.835 84.3132C372.891 84.5218 372.786 84.7382 372.592 84.8334C372.311 84.9717 371.979 84.7966 371.906 84.4913C371.763 83.8863 371.549 83.4252 371.116 82.8881Z" fill="black"/>
<path d="M374.294 80.1623C374.1 79.9207 374.164 79.5544 374.442 79.4177C374.638 79.3215 374.876 79.3758 375.005 79.5516C375.54 80.2784 375.806 80.8091 376.013 81.5875C376.069 81.7961 375.964 82.0125 375.77 82.1076C375.489 82.2459 375.157 82.0709 375.084 81.7655C374.941 81.1605 374.727 80.6994 374.294 80.1623Z" fill="black"/>
<path d="M376.926 77.8047C376.731 77.5631 376.795 77.1968 377.073 77.0601C377.269 76.9639 377.507 77.0182 377.636 77.194C378.171 77.9208 378.437 78.4515 378.644 79.2299C378.7 79.4385 378.595 79.6549 378.402 79.75C378.12 79.8883 377.788 79.7133 377.716 79.4079C377.572 78.8029 377.358 78.3418 376.926 77.8047Z" fill="black"/>
<path d="M380.692 76.1268C380.497 75.8852 380.561 75.5188 380.839 75.3821C381.035 75.2859 381.273 75.3403 381.402 75.5161C381.937 76.2429 382.203 76.7736 382.411 77.552C382.466 77.7605 382.361 77.9769 382.168 78.0721C381.886 78.2104 381.554 78.0353 381.482 77.73C381.338 77.125 381.124 76.6639 380.692 76.1268Z" fill="black"/>
<path d="M383.3 73.6373C383.105 73.3957 383.169 73.0293 383.448 72.8926C383.644 72.7964 383.881 72.8508 384.011 73.0265C384.546 73.7534 384.811 74.284 385.019 75.0624C385.074 75.271 384.97 75.4874 384.776 75.5825C384.494 75.7209 384.162 75.5458 384.09 75.2405C383.946 74.6355 383.732 74.1744 383.3 73.6373Z" fill="black"/>
<path d="M386.081 72.1326C385.887 71.8911 385.951 71.5247 386.229 71.388C386.425 71.2918 386.663 71.3461 386.792 71.5219C387.327 72.2488 387.593 72.7794 387.8 73.5578C387.856 73.7664 387.751 73.9828 387.557 74.0779C387.276 74.2162 386.944 74.0412 386.871 73.7358C386.728 73.1309 386.514 72.6697 386.081 72.1326Z" fill="black"/>
<path d="M388.689 69.6431C388.495 69.4015 388.559 69.0351 388.837 68.8984C389.033 68.8022 389.271 68.8566 389.4 69.0324C389.935 69.7592 390.201 70.2899 390.408 71.0683C390.464 71.2768 390.359 71.4932 390.165 71.5884C389.884 71.7267 389.552 71.5516 389.479 71.2463C389.336 70.6413 389.122 70.1802 388.689 69.6431Z" fill="black"/>
</svg>
